<svg xmlns="http://www.w3.org/2000/svg" viewBox="0 0 60 60"><defs><style>.cls-1,.cls-3{fill:none;stroke-miterlimit:10;stroke-width:2px;}.cls-1{stroke:#000;}.cls-2{fill:#f8f8ff;}.cls-3{stroke:#f8f8ff;}</style></defs><g id="Layer_2" data-name="Layer 2"><path d="M11.66,16.89a2.16,2.16,0,0,1-2.37,2.47,2.44,2.44,0,0,1-1.67-.6l.56-1.32a1.56,1.56,0,0,0,.87.31c.63,0,.89-.45.89-1.15V9.4h1.72Z" transform="translate(0 0)"/><path d="M24.4,15.14c0,3-1.83,4.22-3.89,4.22-2.44,0-4.18-1.44-4.18-4.32V9.4h1.73v5.28c0,1.84.75,3.07,2.45,3.07,1.48,0,2.18-1.05,2.18-3V9.4H24.4Z" transform="translate(0 0)"/><path d="M32,9.37h1.52l4.14,9.84H35.8l-1-2.51H30.59l-1,2.51H27.83Zm-.73,5.72h2.88L32.69,11.6Z" transform="translate(0 0)"/><path d="M48.2,19.21l-5.39-6.8v6.8H41.2V9.4h1.37L48,16.22V9.4h1.61v9.81Z" transform="translate(0 0)"/><path d="M7.82,35.21V25.4l2.79,0c2.88,0,3.79,1.54,3.79,3.15s-1.24,3.18-3.58,3.18c-.3,0-.86,0-1.28,0v3.55ZM9.54,27v3c.41,0,.83.07,1.22.07,1,0,1.82-.49,1.82-1.58S12,27,10.78,27Z" transform="translate(0 0)"/><path d="M18.5,25.37H20l4.14,9.84H22.33l-1-2.51H17.12l-1,2.51H14.36Zm-.72,5.72h2.87L19.22,27.6Z" transform="translate(0 0)"/><path d="M25.76,25.43c.54,0,1.84-.07,2.82-.07,2.34,0,3.23,1.06,3.23,2.42A2.3,2.3,0,0,1,30.41,30v0a2.18,2.18,0,0,1,1.72,2.28c0,2-1.57,2.94-3.64,2.94-.9,0-2.16,0-2.73-.07ZM27.48,27v2.48h1.16a1.29,1.29,0,0,0,1.46-1.3c0-.8-.62-1.22-1.54-1.22C28.16,27,27.79,27,27.48,27Zm0,4v2.59a9.17,9.17,0,0,0,1.13.07c1.17,0,1.8-.49,1.8-1.41S29.78,31,28.7,31Z" transform="translate(0 0)"/><path d="M34.52,25.4h1.72v8.19h4.41v1.62H34.52Z" transform="translate(0 0)"/><path d="M46.28,25.25a4.87,4.87,0,0,1,5.11,5.05,4.94,4.94,0,0,1-5.11,5.06,4.87,4.87,0,0,1-5.1-5.06A4.93,4.93,0,0,1,46.28,25.25Zm0,8.5a3.21,3.21,0,0,0,3.29-3.45,3.29,3.29,0,1,0-6.57,0A3.32,3.32,0,0,0,46.28,33.75Z" transform="translate(0 0)"/><path d="M8.56,41.43c.54,0,1.84-.07,2.83-.07,2.33,0,3.22,1.06,3.22,2.42A2.3,2.3,0,0,1,13.21,46v0a2.18,2.18,0,0,1,1.72,2.28c0,2-1.57,2.94-3.64,2.94-.9,0-2.16,0-2.73-.07ZM10.28,43v2.48h1.16a1.29,1.29,0,0,0,1.46-1.3c0-.8-.62-1.22-1.54-1.22C11,43,10.59,43,10.28,43Zm0,4v2.59a9.17,9.17,0,0,0,1.13.07c1.17,0,1.8-.49,1.8-1.41S12.58,47,11.5,47Z" transform="translate(0 0)"/><path d="M22.88,41.37h1.51l4.15,9.84H26.7l-1-2.51H21.49l-1,2.51H18.73Zm-.73,5.72H25L23.59,43.6Z" transform="translate(0 0)"/><path d="M32.8,41.4h5.68V43H34.53v2.44h3.53v1.61H34.53v2.53h4.09v1.62H32.8Z" transform="translate(0 0)"/><path d="M43.13,41.4h7.46v1.19l-5.44,7h5.58v1.62H42.86V50l5.42-7H43.13Z" transform="translate(0 0)"/><line class="cls-1" x1="1" x2="1" y2="60"/><line class="cls-1" x1="59" x2="59" y2="60"/><line class="cls-1" y1="1" x2="60" y2="1"/><line class="cls-1" x1="52" y1="59" x2="60" y2="59"/><line class="cls-1" y1="59" x2="45" y2="59"/></g><g id="Layer_2_copy" data-name="Layer 2 copy"><path class="cls-2" d="M11.66,16.89a2.16,2.16,0,0,1-2.37,2.47,2.44,2.44,0,0,1-1.67-.6l.56-1.32a1.56,1.56,0,0,0,.87.31c.63,0,.89-.45.89-1.15V9.4h1.72Z" transform="translate(0 0)"/><path class="cls-2" d="M24.4,15.14c0,3-1.83,4.22-3.89,4.22-2.44,0-4.18-1.44-4.18-4.32V9.4h1.73v5.28c0,1.84.75,3.07,2.45,3.07,1.48,0,2.18-1.05,2.18-3V9.4H24.4Z" transform="translate(0 0)"/><path class="cls-2" d="M32,9.37h1.52l4.14,9.84H35.8l-1-2.51H30.59l-1,2.51H27.83Zm-.73,5.72h2.88L32.69,11.6Z" transform="translate(0 0)"/><path class="cls-2" d="M48.2,19.21l-5.39-6.8v6.8H41.2V9.4h1.37L48,16.22V9.4h1.61v9.81Z" transform="translate(0 0)"/><path class="cls-2" d="M7.82,35.21V25.4l2.79,0c2.88,0,3.79,1.54,3.79,3.15s-1.24,3.18-3.58,3.18c-.3,0-.86,0-1.28,0v3.55ZM9.54,27v3c.41,0,.83.07,1.22.07,1,0,1.82-.49,1.82-1.58S12,27,10.78,27Z" transform="translate(0 0)"/><path class="cls-2" d="M18.5,25.37H20l4.14,9.84H22.33l-1-2.51H17.12l-1,2.51H14.36Zm-.72,5.72h2.87L19.22,27.6Z" transform="translate(0 0)"/><path class="cls-2" d="M25.76,25.43c.54,0,1.84-.07,2.82-.07,2.34,0,3.23,1.06,3.23,2.42A2.3,2.3,0,0,1,30.41,30v0a2.18,2.18,0,0,1,1.72,2.28c0,2-1.57,2.94-3.64,2.94-.9,0-2.16,0-2.73-.07ZM27.48,27v2.48h1.16a1.29,1.29,0,0,0,1.46-1.3c0-.8-.62-1.22-1.54-1.22C28.16,27,27.79,27,27.48,27Zm0,4v2.59a9.17,9.17,0,0,0,1.13.07c1.17,0,1.8-.49,1.8-1.41S29.78,31,28.7,31Z" transform="translate(0 0)"/><path class="cls-2" d="M34.52,25.4h1.72v8.19h4.41v1.62H34.52Z" transform="translate(0 0)"/><path class="cls-2" d="M46.28,25.25a4.87,4.87,0,0,1,5.11,5.05,4.94,4.94,0,0,1-5.11,5.06,4.87,4.87,0,0,1-5.1-5.06A4.93,4.93,0,0,1,46.28,25.25Zm0,8.5a3.21,3.21,0,0,0,3.29-3.45,3.29,3.29,0,1,0-6.57,0A3.32,3.32,0,0,0,46.28,33.75Z" transform="translate(0 0)"/><path class="cls-2" d="M8.56,41.43c.54,0,1.84-.07,2.83-.07,2.33,0,3.22,1.06,3.22,2.42A2.3,2.3,0,0,1,13.21,46v0a2.18,2.18,0,0,1,1.72,2.28c0,2-1.57,2.94-3.64,2.94-.9,0-2.16,0-2.73-.07ZM10.28,43v2.48h1.16a1.29,1.29,0,0,0,1.46-1.3c0-.8-.62-1.22-1.54-1.22C11,43,10.59,43,10.28,43Zm0,4v2.59a9.17,9.17,0,0,0,1.13.07c1.17,0,1.8-.49,1.8-1.41S12.58,47,11.5,47Z" transform="translate(0 0)"/><path class="cls-2" d="M22.88,41.37h1.51l4.15,9.84H26.7l-1-2.51H21.49l-1,2.51H18.73Zm-.73,5.72H25L23.59,43.6Z" transform="translate(0 0)"/><path class="cls-2" d="M32.8,41.4h5.68V43H34.53v2.44h3.53v1.61H34.53v2.53h4.09v1.62H32.8Z" transform="translate(0 0)"/><path class="cls-2" d="M43.13,41.4h7.46v1.19l-5.44,7h5.58v1.62H42.86V50l5.42-7H43.13Z" transform="translate(0 0)"/><line class="cls-3" x1="1" x2="1" y2="60"/><line class="cls-3" x1="59" x2="59" y2="60"/><line class="cls-3" y1="1" x2="60" y2="1"/><line class="cls-3" x1="52" y1="59" x2="60" y2="59"/><line class="cls-3" y1="59" x2="45" y2="59"/></g></svg>